# xmcd
#
# Track frame offsets:
#	150
#	21265
#	37482
#	55032
#	70477
#	85975
#	107557
#	129472
#	147810
#	167477
#
# Disc length: 2784 seconds
#
# Revision: 25
# Processed by: cddbd v1.5.2PL0 Copyright (c) Steve Scherf et al.
# Submitted via: Jack! The Knife 20 Magnifico
#
DISCID=8a0ade0a
DTITLE=Rage - Reign Of Fear
DYEAR=1986
DGENRE=Metal
TTITLE0=Scared To Death
TTITLE1=Deceiver
TTITLE2=Reign Of Fear
TTITLE3=Hand Of Glory
TTITLE4=Raw Energy
TTITLE5=Echoes Of Evil
TTITLE6=Chaste Flesh
TTITLE7=Suicide
TTITLE8=Machinery
TTITLE9=Scaffold
EXTD=Ralf Hubert
EXTT0=Schroeder, Wagner
EXTT1=Grüning, Wagner
EXTT2=Schroeder, Wagner
EXTT3=Schroeder, Wagner
EXTT4=Grüning, Wagner
EXTT5=Schroeder, Wagner
EXTT6=Schroeder, Wagner
EXTT7=Schroeder, Wagner
EXTT8=Schroeder, Wagner
EXTT9=Grüning, Schröder, Wagner
PLAYORDER=
